<?xml version="1.0" encoding="utf-8"?>
<!-- Generator: Adobe Illustrator 22.0.0, SVG Export Plug-In . SVG Version: 6.00 Build 0)  -->
<svg version="1.1" xmlns="http://www.w3.org/2000/svg" xmlns:xlink="http://www.w3.org/1999/xlink" x="0px" y="0px"
	 viewBox="0 0 600 200" style="enable-background:new 0 0 600 200;" xml:space="preserve">
<style type="text/css">
	.st0{fill:#FFE027;}
	.st1{fill:#E0BA00;}
	.st2{fill:#AF0000;}
	.st3{fill:#6D0000;}
	.st4{fill:#910000;}
	.st5{fill:#9B0404;}
	.st6{fill:#8C0000;}
	.st7{fill:#7C0000;}
	.st8{fill:#750000;}
	.st9{fill:#870000;}
	.st10{fill:#9E0000;}
	.st11{fill:#930000;}
	.st12{fill:#A00000;}
	.st13{fill:#990000;}
	.st14{fill:#BC0000;}
	.st15{fill:#E53535;}
	.st16{fill:#BF1010;}
	.st17{fill:#CC1919;}
	.st18{fill:#BF0808;}
	.st19{fill:#C41212;}
	.st20{fill:#C10000;}
	.st21{fill:#840000;}
	.st22{fill:#0E350D;}
	.st23{fill:#051E03;}
	.st24{fill:#072304;}
	.st25{fill:#051902;}
	.st26{fill:#072302;}
	.st27{fill:#0A3002;}
	.st28{fill:#0A2603;}
	.st29{fill:#0C2B04;}
	.st30{fill:#0A2602;}
	.st31{fill:#0D2D03;}
	.st32{fill:#123306;}
	.st33{fill:#0D2304;}
	.st34{fill:#102606;}
	.st35{fill:#163505;}
</style>
<g id="Layer_1">
	
		<image style="display:none;overflow:visible;" width="5589" height="3739" xlink:href="pexels-tom-swinnen-3194495.jpg"  transform="matrix(0.1074 0 0 0.1074 -0.5 -100.6978)">
	</image>
	<rect class="st0" width="600" height="200"/>
</g>
<g id="Layer_2">
	<polyline class="st1" points="300.3,37 297.3,40.1 291.4,51.8 289.4,61 284,63.8 280.4,70.6 280.2,76.6 280.2,76.6 279,95.8 
		291.6,131.6 314,157.8 322.9,163.2 323.9,158.3 317.7,145.2 310.6,123.8 306.5,96.2 302.3,77.5 302.9,75 301.8,69.4 297.4,64.5 
		297.2,59.5 299.3,47.8 303.1,37.6 300.3,37 	"/>
	<polygon class="st2" points="278.7,71 277.2,74.8 276.3,96.8 290.2,132.5 313.7,158.2 322.9,163.3 323.7,158.4 317,145.3 
		309.1,124 304,96.2 299.1,77.5 296.5,71.1 	"/>
	<polygon class="st3" points="276.3,96.8 285.4,69.2 278,69.7 277,79.3 	"/>
	<polygon class="st4" points="276.3,96.8 284.1,73.1 289.2,77.1 290.2,132.5 	"/>
	<polygon class="st5" points="289.4,84.5 299.2,77.9 296.5,71.1 288.7,69.8 	"/>
	<polygon class="st6" points="289.9,115.5 304.2,137 290.2,132.5 	"/>
	<polygon class="st7" points="304.2,137 313.7,158.2 290.2,132.5 	"/>
	<polygon class="st8" points="313.7,158.2 319.4,158.2 322.9,163.3 	"/>
	<polygon class="st9" points="320,151.1 319.4,158.2 322.9,163.3 323.7,158.4 	"/>
	<polygon class="st10" points="319.4,158.2 304.2,137 313.7,158.2 	"/>
	<polygon class="st11" points="319.4,158.2 312.2,148.1 309.1,124 317,145.3 320,151.1 	"/>
	<polygon class="st12" points="310.9,138.1 299.6,121.1 309.1,124 	"/>
	<polygon class="st13" points="299.6,121.1 304,96.2 309.1,124 	"/>
	<polygon class="st14" points="304,96.2 292.8,82.2 299.2,77.9 	"/>
	<polygon class="st15" points="292.8,82.2 289.4,84.5 289.7,106.2 298.4,89.2 	"/>
	<polygon class="st16" points="293.3,99.2 304,96.2 298.4,89.2 	"/>
	<polygon class="st17" points="293.3,99.2 297.1,126.2 289.9,115.5 289.7,106.2 	"/>
	<polygon class="st18" points="299.6,121.1 293.3,99.2 304,96.2 	"/>
	<polygon class="st19" points="299.6,121.1 297.1,126.2 293.3,99.2 	"/>
	<polygon class="st20" points="289.4,84.5 285.7,108.4 289.9,115.5 	"/>
	<polygon class="st21" points="290.2,132.5 289.9,115.5 277.2,94.1 276.3,96.8 	"/>
	<polygon class="st22" points="276.7,71.3 280.2,64.3 285.5,61.2 287.2,51.9 292.7,39.9 295.6,36.7 298.5,37.2 295,47.7 293.3,59.5 
		293.7,64.5 298.3,69.4 299.6,74.9 299.1,77.5 293.8,71.8 291.1,76.1 289.4,80.2 284.9,76 283.6,71.4 279.7,74.2 276.8,77.3 	"/>
	<polygon class="st23" points="276.8,77.3 280.7,70.6 276.7,71.3 	"/>
	<polygon class="st24" points="280.7,70.6 280.2,64.3 276.7,71.3 	"/>
	<polygon class="st25" points="280.7,70.6 285.5,61.2 280.2,64.3 	"/>
	<polygon class="st26" points="280.7,70.6 283.6,71.4 279.7,74.2 276.8,77.3 	"/>
	<polygon class="st27" points="285.5,61.2 283.6,71.4 280.7,70.6 	"/>
	<polygon class="st27" points="283.6,71.4 287.4,68.7 289.4,80.2 284.9,76 	"/>
	<polygon class="st27" points="293.8,71.8 294.5,68.3 299.1,77.5 	"/>
	<polygon class="st28" points="299.1,77.5 296.5,72.2 298.3,69.4 299.6,74.9 	"/>
	<polygon class="st28" points="293.8,71.8 291.3,68.9 288.5,75.1 289.4,80.2 291.1,76.1 	"/>
	<polygon class="st29" points="285.5,61.2 290.4,51.4 290.4,45 287.2,51.9 	"/>
	<polygon class="st29" points="283.6,71.4 287.4,68.7 288.7,54.8 285.5,61.2 	"/>
	<polygon class="st29" points="294.5,68.3 293.7,64.5 291.3,68.9 293.8,71.8 	"/>
	<polygon class="st30" points="291.3,68.9 288.7,54.8 290.4,51.4 	"/>
	<polygon class="st31" points="295,47.7 290.4,51.4 291,62.5 	"/>
	<polygon class="st32" points="291,62.5 293.7,64.5 293.3,59.5 295,47.7 	"/>
	<polygon class="st32" points="288.7,54.8 287.4,68.7 288.5,75.1 291.3,68.9 	"/>
	<polygon class="st33" points="295.6,36.7 298.5,37.2 292.7,39.9 	"/>
	<polygon class="st34" points="290.4,51.4 295.6,38.6 292.7,39.9 290.4,45 	"/>
	<polygon class="st35" points="298.5,37.2 295.6,38.6 295,47.7 	"/>
</g>
</svg>
