<?xml version="1.0" encoding="utf-8"?>
<!-- Generator: Adobe Illustrator 22.0.0, SVG Export Plug-In . SVG Version: 6.00 Build 0)  -->
<svg version="1.1" id="Layer_1" xmlns="http://www.w3.org/2000/svg" xmlns:xlink="http://www.w3.org/1999/xlink" x="0px" y="0px"
	 viewBox="0 0 500 200" style="enable-background:new 0 0 500 200;" xml:space="preserve">
<style type="text/css">
	.st0{fill:#E80000;}
	.st1{fill:#FFFFFF;}
	.st2{fill:none;stroke:#969696;stroke-miterlimit:10;}
	.st3{fill:none;stroke:#0F0F0F;stroke-miterlimit:10;}
	.st4{fill:#0F0F0F;}
	.st5{fill:#DD0000;}
	.st6{fill:#FCFCFC;}
	.st7{fill:#FCFCFC;stroke:#000000;stroke-miterlimit:10;}
	.st8{fill:none;stroke:#FCFCFC;stroke-miterlimit:10;}
</style>
<g id="Layer_1_1_">
	<rect y="0.5" width="500" height="200"/>
</g>
<g id="i">
	<path class="st0" d="M77,68.4c0-10.4,0-20.7,0-31.3c5.4,0,10.5,0,15.7,0c0,30.9,0,61.8,0,92.9c-5.1,0-10.2,0-15.6,0
		c0-1.9,0-3.9,0-6c-0.7,0.3-1.1,0.3-1.5,0.5c-7.1,4.3-14.9,6.4-23.1,6.6c-11.1,0.2-21.5-2.6-29.6-11.1c-5-5.2-7.7-11.7-8.4-19
		c-0.7-7,0.3-13.6,3.5-19.8c4.5-8.4,11.5-13.8,20.3-16.4c12.9-3.9,25.4-2.6,37.5,3.3c0.2,0.1,0.3,0.2,0.5,0.2
		C76.4,68.4,76.6,68.4,77,68.4z M77.1,96.1c0-3.3,0.1-6.7-0.1-10.1c0-0.9-0.6-2-1.3-2.5c-9.8-6.7-20.4-8.6-31.7-4.8
		c-7.7,2.6-12.8,9.5-13,17.2c-0.2,8.4,4.1,15.6,11.9,18.6c11.8,4.6,22.5,2,32.4-5.3c1.5-1.1,2-2.5,1.9-4.3
		C77,102.1,77.1,99.1,77.1,96.1z"/>
	<rect x="102.1" y="67.9" class="st0" width="16.7" height="63.1"/>
	<g id="qr">
		<rect x="97.9" y="36.9" class="st1" width="25" height="25.7"/>
		<polygon class="st2" points="122.9,62.5 122.9,36.9 104.6,36.9 97.9,36.9 97.9,62.5 		"/>
		<polyline class="st3" points="97.9,44.9 105.7,44.9 105.7,37.4 		"/>
		<rect x="100" y="39" class="st4" width="4.2" height="4.3"/>
		<rect x="116.7" y="39" class="st4" width="4.2" height="4.3"/>
		<rect x="100" y="56.1" class="st4" width="4.2" height="4.3"/>
		<polyline class="st3" points="114.8,37.2 114.9,45.2 122.9,45.2 		"/>
		<polyline class="st3" points="105.7,62.5 105.7,54.5 97.9,54.5 		"/>
		<polyline class="st3" points="107.8,39.5 109.9,39.5 109.9,41.7 108.9,41.7 		"/>
		<polyline class="st3" points="113,40.6 113,42.7 113,43.8 		"/>
		<line class="st3" x1="112" y1="42.7" x2="113" y2="42.7"/>
		<line class="st3" x1="112" y1="39.5" x2="113" y2="39.5"/>
		<polyline class="st3" points="109.9,42.7 109.9,46 113,46 113,44.9 113,48.1 114.1,48.1 		"/>
		<polyline class="st3" points="116.1,47 116.1,49.2 114.1,49.2 		"/>
		<polyline class="st3" points="117.2,47 120.3,47 120.3,50.2 		"/>
		<polyline class="st3" points="119.3,53.4 120.3,53.4 120.3,51.3 117.2,51.3 		"/>
		<polyline class="st3" points="117.2,53.4 117.2,55.6 120.3,55.6 120.3,58.8 118.2,58.8 118.2,56.6 117.2,56.6 		"/>
		<polyline class="st3" points="113,58.8 115.1,58.8 115.1,59.9 117.2,59.9 		"/>
		<line class="st3" x1="119.3" y1="59.9" x2="120.3" y2="59.9"/>
		<polyline class="st3" points="107.8,57.7 107.8,59.9 112,59.9 112,55.6 108.9,55.6 108.9,50.2 112,50.2 112,52.4 		"/>
		<polyline class="st3" points="110.9,53.4 113,53.4 114.1,53.4 114.1,56.6 		"/>
		<line class="st3" x1="116.1" y1="52.4" x2="117.2" y2="52.4"/>
		<polyline class="st3" points="100.5,47 104.7,47 104.7,52.4 		"/>
		<polyline class="st3" points="100.5,49.2 102.6,49.2 102.6,50.2 		"/>
		<line class="st3" x1="100.5" y1="51.3" x2="101.6" y2="51.3"/>
		<polyline class="st3" points="106.8,47 109.9,47 109.9,48.1 		"/>
		<polyline class="st3" points="105.7,50.2 107.8,50.2 107.8,52.4 106.8,52.4 		"/>
		<polyline class="st3" points="108.9,56.6 110.9,56.6 110.9,57.7 		"/>
	</g>
	<path class="st0" d="M125.7,75.4v13.7c0,0,14.5-6.7,28.4-5.8c16.1,1.1,13.2,14.7,12.2,23.6c0,0-3,24.1-3,24.2h15.2l4.3-31.8
		c0,0,3.6-33.3-27.2-31.2c0,0-7.6,0.6-17.9,3.1C129.7,73.2,125.7,75.4,125.7,75.4z"/>
	<path class="st0" d="M206.3,104.2c0.7,3,2.5,5.2,4.4,7c3.2,2.8,7,4.3,11,5.1c9,1.9,19.8,0.5,28.3-2.5l5.2,10.7
		c-2.1,1.1-6.3,4.3-19.7,5.6c-5.1,0.4-10.1,0.4-15.1-0.3c-7.9-1.2-15.4-3.9-21.5-9.6c-4.8-4.5-7.5-10.2-8.4-16.8
		c-1.1-8.1,0.6-15.4,5.1-21.9c4.2-6,9.8-9.7,16.5-11.9c8-2.7,16.3-2.9,24.4-0.6c12.4,3.4,20.8,11.4,23.9,24.9
		c0.6,3.1,0.1,10.8,0.1,10.8L206.3,104.2z M206,92.7c13.3,0,26.5,0,39.8,0c-0.9-3-2.5-5.3-4.7-7.3c-3.3-2.9-7.2-4.3-11.5-4.7
		c-5.9-0.6-11.7,0.1-16.9,3.4C209.8,86.2,207.4,88.7,206,92.7z"/>
	<path class="st1" d="M283.3,104.2c0.7,3,2.5,5.2,4.4,7c3.2,2.8,7,4.3,11,5.1c9,1.9,19.8,0.5,28.3-2.5l5.2,10.7
		c-2.1,1.1-6.3,4.3-19.7,5.6c-5.1,0.4-10.1,0.4-15.1-0.3c-7.9-1.2-15.4-3.9-21.5-9.6c-4.8-4.5-7.5-10.2-8.4-16.8
		c-1.1-8.1,0.6-15.4,5.1-21.9c4.2-6,9.8-9.7,16.5-11.9c8-2.7,16.3-2.9,24.4-0.6c12.4,3.4,20.8,11.4,23.9,24.9
		c0.6,3.1,0.1,10.8,0.1,10.8L283.3,104.2z M283.1,92.7c13.3,0,26.5,0,39.8,0c-0.9-3-2.5-5.3-4.7-7.3c-3.3-2.9-7.2-4.3-11.5-4.7
		c-5.9-0.6-11.7,0.1-16.9,3.4C286.9,86.2,284.5,88.7,283.1,92.7z"/>
	<path class="st1" d="M342,130.9c12.7-16.8,25.1-33.3,37.5-49.7c-0.1-0.1-0.1-0.3-0.2-0.4c-10.3,0-20.6,0-31.1,0c0-4.4,0-8.6,0-12.8
		c19.8,0,39.6,0,59.9,0c-12.6,16.7-25.1,33.2-37.6,49.6c0.1,0.1,0.2,0.3,0.3,0.4c11.8,0,23.6,0,35.5,0c0,4.5,0,8.8,0,13
		C384.9,130.9,363.6,130.9,342,130.9z"/>
</g>
<g id="Y_wine">
	<path class="st5" d="M425,108.5h47.4c0,0-5.7,17.1-23.4,17.1C431.3,125.6,425,108.5,425,108.5z"/>
	<path class="st6" d="M462,64.7c-1.3,4.6,0.6,9.3,4.3,11.9l1-3.9c-1.8-1.8-2.5-4.5-1.9-7.1c1-4,5-6.2,8.8-5.2c3.9,1.1,6,5.1,5.1,9
		c-0.3,1.1-0.7,1.9-1.4,2.8l1.9,3.3c1.4-1.4,2.5-3.1,3-5.1c1.6-5.9-1.9-12-7.6-13.5C469.5,55.4,463.5,58.8,462,64.7z"/>
	<path class="st1" d="M451.3,150.6c-0.5,0-0.8-0.3-0.8-0.9v-19.5c0-0.5,0.3-0.9,0.8-0.9c0.5,0,0.8,0.3,0.8,0.9v19.5
		C452.1,150.2,451.8,150.6,451.3,150.6z"/>
	<path class="st1" d="M446.6,150.7c-0.5,0-0.8-0.3-0.8-0.9v-19.6c0-0.5,0.3-0.9,0.8-0.9c0.5,0,0.8,0.3,0.8,0.9v19.6
		C447.3,150.3,447,150.7,446.6,150.7z"/>
	<path class="st1" d="M466.3,169.2h-34.7c-0.5,0-0.8-0.3-0.8-0.9v-3.2c0-0.5,0.3-0.9,0.8-0.9c7.6,0,14.2-6.6,14.2-14.4
		c0-0.5,0.4-0.9,0.8-0.9c0.5,0,0.8,0.4,0.8,0.9c-0.1,8.4-6.9,15.5-15,16v1.6h33.1v-1.6c-8.3-0.4-14.8-7.1-15-15.8
		c0-0.5,0.3-0.9,0.8-0.9l0,0c0.4,0,0.8,0.3,0.8,0.9c0.2,8.1,6.4,14.2,14.2,14.2c0.5,0,0.8,0.3,0.8,0.9v3.2
		C467.1,168.8,466.8,169.2,466.3,169.2z"/>
	<path class="st1" d="M465,166h-32.4c-0.7,0-1.3-0.3-1.3-0.9s0.5-0.9,1.3-0.9H465c0.7,0,1.3,0.3,1.3,0.9
		C466.3,165.6,465.7,166,465,166z"/>
	<path class="st6" d="M449.2,126.7c-5.5,0-10.8-1.8-15.3-5.1c-3.3-2.5-6-5.7-7.9-9.5c0-0.1-0.1-0.1-0.1-0.2l-0.1-0.1
		c-0.3-0.6-0.5-1.3-0.8-1.9c-0.1-0.4-0.3-1-0.4-1.4c-0.8-2.7-1.3-5.3-1.3-8c0-5.6,2.4-22.1,3.8-31.4l0.1-0.3
		c0.1-0.4,0.4-0.7,0.8-0.7c0.4,0.1,0.7,0.4,0.7,0.9c0,0.1,0,0.1,0,0.2v0.1c-2.4,15.8-3.8,27.2-3.8,31.2c0,2.6,0.4,5.1,1.1,7.6
		c0.1,0.4,0.3,0.9,0.4,1.3c0.2,0.6,0.5,1.3,0.7,1.8l0.1,0.1c0,0.1,0.1,0.1,0.1,0.2c1.8,3.5,4.4,6.6,7.4,9c4.2,3.1,9.2,4.8,14.4,4.8
		c3.9,0,7.7-1,11-2.7l0,0l0,0c0.4-0.2,0.9-0.4,1.4-0.7c0,0,0,0,0.1,0c3.2-2,6-4.8,8-8c0.6-1,1-1.9,1.6-2.9c0.2-0.4,0.4-0.9,0.5-1.3
		c1-2.9,1.7-5.9,1.7-9c0-4.1-1.4-15.5-3.8-31.2c0-0.1,0-0.1,0-0.2v-0.1c-0.1-0.4,0.2-0.9,0.7-0.9c0.4-0.1,0.8,0.2,0.8,0.7v0.1
		c0,0.1,0,0.1,0,0.2c1.5,9.3,3.8,25.8,3.8,31.3c0,3.2-0.6,6.5-1.8,9.5c-0.1,0.4-0.4,1-0.6,1.4c-0.4,1-0.9,2.1-1.6,3
		c-2.1,3.5-5.1,6.4-8.5,8.6c0,0,0,0-0.1,0l0,0c-0.5,0.3-0.9,0.6-1.6,0.9l0,0C457.3,125.7,453.2,126.7,449.2,126.7z"/>
	<path class="st6" d="M449.2,131c-6.4,0-12.4-1.9-17.5-5.5c-3.9-2.7-6.9-6.1-9.1-10.2c0-0.1-0.1-0.2-0.2-0.2l-0.1-0.2
		c-0.3-0.6-0.6-1.3-0.9-2c-0.2-0.5-0.3-1-0.5-1.5c-0.9-2.8-1.4-5.7-1.4-8.7c0-6,2.7-23.7,4.4-33.8l0.1-0.3c0.1-0.4,0.5-0.7,0.9-0.7
		c0.4,0.1,0.8,0.5,0.8,1c0,0.1,0,0.2,0,0.2v0.2c-2.8,17-4.4,29.2-4.4,33.5c0,2.8,0.4,5.5,1.4,8.1c0.2,0.5,0.3,1,0.5,1.4
		c0.3,0.6,0.6,1.3,0.8,1.9l0.1,0.2c0,0.1,0.1,0.2,0.1,0.2c2,3.9,5,7.2,8.5,9.6c4.8,3.3,10.4,5.1,16.5,5.1c4.5,0,8.8-1,12.7-2.9l0,0
		l0,0c0.5-0.2,1-0.5,1.6-0.9c0,0,0,0,0.1,0c3.8-2.1,7-5.1,9.3-8.7c0.7-1,1.3-2,1.8-3.1c0.3-0.5,0.4-1,0.6-1.4
		c1.3-3.1,1.9-6.3,1.9-9.6c0-4.4-1.6-16.6-4.3-33.5c0-0.1,0-0.2,0-0.2v-0.2c-0.1-0.4,0.3-1,0.8-1c0.4-0.1,0.9,0.2,0.9,0.7v0.2
		c0,0.1,0,0.2,0,0.2c1.7,9.9,4.4,27.6,4.4,33.7c0,3.5-0.7,7-2,10.2c-0.2,0.5-0.4,1-0.7,1.5c-0.5,1.1-1.1,2.2-1.9,3.2
		c-2.4,3.7-5.8,6.8-9.8,9.2c0,0,0,0-0.1,0l0,0c-0.6,0.3-1.1,0.6-1.8,1l0,0C458.4,129.9,453.9,131,449.2,131z"/>
	<path class="st7" d="M424.5,68.4"/>
	<line class="st8" x1="428" y1="68.4" x2="425" y2="68.4"/>
	<line class="st8" x1="469.8" y1="68.5" x2="474" y2="68.5"/>
</g>
</svg>
