<?xml version="1.0" encoding="utf-8"?>
<!-- Generator: Adobe Illustrator 22.0.0, SVG Export Plug-In . SVG Version: 6.00 Build 0)  -->
<svg version="1.1" id="Layer_1" xmlns="http://www.w3.org/2000/svg" xmlns:xlink="http://www.w3.org/1999/xlink" x="0px" y="0px"
	 viewBox="0 0 600 600" style="enable-background:new 0 0 600 600;" xml:space="preserve">
<style type="text/css">
	.st0{display:none;}
	.st1{fill:#0A2A35;stroke:#0E3644;stroke-width:11;stroke-miterlimit:10;}
	.st2{fill:#C7E2B2;}
	.st3{fill:none;stroke:#C7E2B2;stroke-width:2;stroke-miterlimit:10;}
	.st4{fill:none;}
	.st5{fill:#FFFFFF;}
	.st6{font-family:'CopperplateGothic-Bold';}
	.st7{font-size:51.7102px;}
	.st8{letter-spacing:8.5;}
	.st9{fill:#E1FFC2;}
	.st10{fill:none;stroke:#282D0A;stroke-miterlimit:10;}
	.st11{font-size:52.4871px;}
	.st12{fill:none;stroke:#282D0A;stroke-width:0.75;stroke-miterlimit:10;}
	.st13{fill:#42491A;stroke:#282D0A;stroke-miterlimit:10;}
</style>
<g id="Layer_1_1_" class="st0">
</g>
<g id="BG">
	<rect class="st1" width="600" height="600"/>
</g>
<path class="st2" d="M500.3,206.6l11.5-115h7.2v107.2h7.2V91.6h7.2v107.2h7.2V91.6h7.2v107.2h7.2V91.6h7.2l12.1,118.9
	c-1.5,21.5-18.7,32.2-27.3,37.3l14,242.8c1.1,17-4.1,28.6-19.7,29.1c-15.6-0.1-21.2-8.9-20.9-27.2l7.9-244.7
	C528.4,247.8,499.6,243.1,500.3,206.6z"/>
<path class="st2" d="M72.4,91.6c0.2,1.7-37.4-10.3-44.5,101.9c0,0-4.3,38,33,47.1L50.9,490.1c-0.4,17.1,6.4,27.5,22.3,28.9
	c17.4,0,25.7-11.7,25.2-28.9L85.4,240.6c0,0,34.1-4.4,33-44.2C117.3,159,106.8,91.7,72.4,91.6z"/>
<path class="st3" d="M93.9,278.7c0,0,67.5-51.7,219.8-12.1s208.3,12.1,208.3,12.1"/>
<path class="st3" d="M102.5,421.6c0,0,58.9-42.6,211.1-3.1s202.5,12.1,202.5,12.1"/>
<path class="st2" d="M315.7,258.6c-82.2-19.9-137.1-13.4-137.1-13.4V129.6H305h126.4v149.1C405.6,278.2,397.9,278.6,315.7,258.6z"/>
<rect x="108.3" y="304.6" class="st4" width="317.1" height="79.9"/>
<text transform="matrix(0.9442 0 0 1 108.3115 332.9424)" class="st5 st6 st7 st8">VIRTUAL</text>
<text transform="matrix(0.9442 0 0 1 108.3115 332.9424)" class="st9 st6 st7 st8">VIRTUAL</text>
<text transform="matrix(0.9442 0 0 1 108.3115 332.9424)" class="st10 st6 st7 st8">VIRTUAL</text>
<rect x="286.6" y="367.6" class="st4" width="235.1" height="79.9"/>
<text transform="matrix(0.9442 0 0 1 286.6445 396.3076)" class="st5 st6 st11 st8">MENU</text>
<text transform="matrix(0.9442 0 0 1 286.6445 396.3076)" class="st9 st6 st11 st8">MENU</text>
<text transform="matrix(0.9442 0 0 1 286.6445 396.3076)" class="st12 st6 st11 st8">MENU</text>
<path class="st13" d="M199.5,153.2c50.2,0,100.5,0,150.8,0"/>
<path class="st13" d="M201,179.9c39.2,0,78.5-0.1,117.7-0.1"/>
<path class="st13" d="M201,196.6c39.2,0,78.5-0.1,117.7-0.1"/>
<path class="st13" d="M201,213.3c39.2,0,78.5-0.1,117.7-0.1"/>
</svg>
