<?xml version="1.0" encoding="utf-8"?>
<!-- Generator: Adobe Illustrator 22.0.0, SVG Export Plug-In . SVG Version: 6.00 Build 0)  -->
<svg version="1.1" id="Layer_1" xmlns="http://www.w3.org/2000/svg" xmlns:xlink="http://www.w3.org/1999/xlink" x="0px" y="0px"
	 viewBox="0 0 20 20" style="enable-background:new 0 0 20 20;" xml:space="preserve">
<style type="text/css">
	.st0{opacity:0.1;fill:#FFFFFF;}
	.st1{fill:#F4ED00;stroke:#D1C100;stroke-width:4.000000e-02;stroke-miterlimit:10;}
	.st2{fill:#F4ED00;stroke:#D1C100;stroke-width:5.000000e-02;stroke-miterlimit:10;}
</style>
<path class="st0" d="M17,17c-4.7,0-9.2,0-13.9,0c0-4.7,0-9.3,0-14C7.8,3,12.3,3,17,3C17,7.7,17,12.3,17,17z M16.9,3.1
	c-4.6,0-9,0-13.6,0c0,4.6,0,9.2,0,13.8c4.6,0,9,0,13.6,0C16.9,12.3,16.9,7.7,16.9,3.1z"/>
<path class="st1" d="M16.9,3.1c0,4.6,0,9.2,0,13.8c-4.6,0-9.1,0-13.7,0c0-4.6,0-9.2,0-13.8C7.7,3.1,12.3,3.1,16.9,3.1z M10,16.2
	c2,0,3.9,0,5.9,0c0.3,0,0.3,0,0.3-0.3c0-3.9,0-7.8,0-11.7c0-0.3,0-0.3-0.3-0.3c-3.9,0-7.8,0-11.7,0c-0.3,0-0.3,0-0.3,0.3
	c0,3.9,0,7.8,0,11.7c0,0.3,0,0.3,0.3,0.3C6.1,16.2,8,16.2,10,16.2z"/>
<path class="st0" d="M10,16.2c-1.9,0-3.9,0-5.8,0c-0.3,0-0.3,0-0.3-0.3c0-3.9,0-7.8,0-11.7c0-0.3,0-0.3,0.3-0.3c3.9,0,7.8,0,11.7,0
	c0.3,0,0.3,0,0.3,0.3c0,3.9,0,7.8,0,11.7c0,0.3,0,0.3-0.3,0.3C13.9,16.2,11.9,16.2,10,16.2z M10,14.2c2.3,0,4.2-1.9,4.2-4.2
	S12.3,5.8,10,5.8S5.8,7.7,5.8,10S7.7,14.2,10,14.2z"/>
<path class="st2" d="M10,14.2c-2.3,0-4.2-1.9-4.2-4.2S7.7,5.8,10,5.8s4.2,1.9,4.2,4.2S12.3,14.2,10,14.2z"/>
</svg>
