<?xml version="1.0" encoding="utf-8"?>
<!-- Generator: Adobe Illustrator 22.0.0, SVG Export Plug-In . SVG Version: 6.00 Build 0)  -->
<svg version="1.1" id="Layer_1" xmlns="http://www.w3.org/2000/svg" xmlns:xlink="http://www.w3.org/1999/xlink" x="0px" y="0px"
	 viewBox="0 0 512 512" style="enable-background:new 0 0 512 512;" xml:space="preserve">
<style type="text/css">
	.st0{fill:#D6936E;}
	.st1{fill:#AF0C0C;}
</style>
<g id="Layer_2_1_">
	<path class="st0" d="M344.1,150c-13.7-0.4-24.9,15.2-24.9,33.8V256h-4.9V110.1c0-18.6-11.2-34.1-24.9-33.8
		c-13.2,0.3-23.9,15-23.9,33.1V256h-4.9V77.8c0-18.6-11.2-34.1-24.9-33.8c-13,0.4-23.7,15-23.7,33.1V256h-4.9V110.9
		c0-18.6-11.2-34.1-24.9-33.8c-13.2,0.3-23.9,15-23.9,33.1v195.4l-19.3-36c-7.9-14.8-23.2-18.1-34.1-7.3
		c-10.9,10.8-13.3,31.5-5.4,46.3l76.5,143c5.5,10.3,14.3,16.4,23.7,16.4h120.4c13.6,0,25.4-12.7,28.5-30.6l16.2-93.3
		c2.1-11.9,3.1-24.2,3.1-36.4V183.1C368,165,357.3,150.4,344.1,150z"/>
</g>
<g id="Layer_1_1_" focusable="false">
	<path class="st1" d="M256,8C119,8,8,119,8,256s111,248,248,248s248-111,248-248S393,8,256,8z M256,476c-121.6,0-220-98.5-220-220
		S134.4,36,256,36s220,98.4,220,220S377.5,476,256,476z M357.8,193.8L295.6,256l62.2,62.2c4.7,4.7,4.7,12.3,0,17l-22.6,22.6
		c-4.7,4.7-12.3,4.7-17,0L256,295.6l-62.2,62.2c-4.7,4.7-12.3,4.7-17,0l-22.6-22.6c-4.7-4.7-4.7-12.3,0-17l62.2-62.2l-62.2-62.2
		c-4.7-4.7-4.7-12.3,0-17l22.6-22.6c4.7-4.7,12.3-4.7,17,0l62.2,62.2l62.2-62.2c4.7-4.7,12.3-4.7,17,0l22.6,22.6
		C362.5,181.5,362.5,189.1,357.8,193.8L357.8,193.8z"/>
</g>
</svg>
