<?xml version="1.0" encoding="utf-8"?>
<!-- Generator: Adobe Illustrator 22.0.0, SVG Export Plug-In . SVG Version: 6.00 Build 0)  -->
<svg version="1.1" id="Layer_1" focusable="false" xmlns="http://www.w3.org/2000/svg" xmlns:xlink="http://www.w3.org/1999/xlink"
	 x="0px" y="0px" viewBox="0 0 320 512" style="enable-background:new 0 0 320 512;" xml:space="preserve">
<style type="text/css">
	.st0{fill:#21DD00;}
	.st1{fill:#FFFFFF;}
	.st2{fill:none;stroke:#FFFFFF;stroke-width:10;stroke-miterlimit:10;}
</style>
<path d="M293.5,0h-267C0,0,0-0.5,0,26v459.5C0,512-0.5,512,26,512h266.5c26.5,0,27.5-0.5,27.5-27V27C320,0.5,320,0,293.5,0z
	 M161,474.3c-7.2,0-13-6.1-13-13.7s5.8-13.7,13-13.7s13,6.1,13,13.7S168.2,474.3,161,474.3z"/>
<path class="st0" d="M103.1,180.5H56c-3.6,0-6.4-2.9-6.4-6.4V127c0-3.6,2.9-6.4,6.4-6.4h47.1c3.6,0,6.4,2.9,6.4,6.4v47.1
	C109.5,177.7,106.7,180.5,103.1,180.5z M75.7,167.4l24.6-24.6c0.8-0.8,0.8-2.2,0-3l-3-3c-0.8-0.8-2.2-0.8-3,0l-20.1,20.1l-9.4-9.4
	c-0.8-0.8-2.2-0.8-3,0l-3,3c-0.8,0.8-0.8,2.2,0,3l13.9,13.9C73.5,168.3,74.9,168.3,75.7,167.4L75.7,167.4z"/>
<path class="st1" d="M103.1,286H56c-3.6,0-6.4-2.9-6.4-6.4v-47.1c0-3.6,2.9-6.4,6.4-6.4h47.1c3.6,0,6.4,2.9,6.4,6.4v47.1
	C109.5,283.1,106.7,286,103.1,286z M75.7,272.9l24.6-24.6c0.8-0.8,0.8-2.2,0-3l-3-3c-0.8-0.8-2.2-0.8-3,0l-20.1,20.1l-9.4-9.4
	c-0.8-0.8-2.2-0.8-3,0l-3,3c-0.8,0.8-0.8,2.2,0,3l13.9,13.9C73.5,273.7,74.9,273.7,75.7,272.9L75.7,272.9z"/>
<line class="st2" x1="131" y1="130" x2="257" y2="130"/>
<line class="st2" x1="131" y1="236" x2="270" y2="236"/>
<line class="st2" x1="131" y1="157" x2="202" y2="157"/>
<line class="st2" x1="131" y1="296" x2="170" y2="296"/>
<line class="st2" x1="131" y1="183" x2="170" y2="183"/>
<line class="st2" x1="131" y1="266" x2="209" y2="266"/>
</svg>
