<?xml version="1.0" encoding="iso-8859-1"?>
<!-- Generator: Adobe Illustrator 19.0.0, SVG Export Plug-In . SVG Version: 6.00 Build 0)  -->
<svg version="1.1" id="Layer_1" xmlns="http://www.w3.org/2000/svg" xmlns:xlink="http://www.w3.org/1999/xlink" x="0px" y="0px"
	 viewBox="0 0 473.935 473.935" style="enable-background:new 0 0 473.935 473.935;" xml:space="preserve">
<circle style="fill:#3CB881;" cx="236.967" cy="236.967" r="236.967"/>
<g>
	<path style="fill:#ED8422;" d="M188.212,297.008c-0.131-0.415-0.49-0.718-0.928-0.782l-14.866-2.163l-6.649-13.47
		c-0.389-0.786-1.684-0.786-2.069,0l-6.649,13.47l-14.866,2.163c-0.43,0.064-0.797,0.367-0.935,0.782
		c-0.131,0.419-0.022,0.876,0.299,1.182l10.75,10.488l-2.537,14.806c-0.079,0.43,0.101,0.868,0.453,1.13
		c0.359,0.258,0.831,0.288,1.22,0.086l13.295-6.993l13.302,6.993c0.165,0.082,0.352,0.127,0.535,0.127
		c0.239,0,0.49-0.071,0.681-0.217c0.352-0.258,0.535-0.7,0.456-1.13l-2.533-14.806l10.75-10.488
		C188.238,297.887,188.35,297.431,188.212,297.008z"/>
	<path style="fill:#ED8422;" d="M333.337,297.008c-0.138-0.415-0.505-0.718-0.932-0.782l-14.866-2.163l-6.645-13.47
		c-0.389-0.786-1.688-0.786-2.077,0l-6.649,13.47l-14.859,2.163c-0.442,0.064-0.797,0.367-0.935,0.782
		c-0.131,0.419-0.022,0.876,0.296,1.182l10.754,10.488l-2.541,14.806c-0.079,0.43,0.097,0.868,0.457,1.13
		c0.355,0.258,0.834,0.288,1.22,0.086l13.295-6.993l13.295,6.993c0.168,0.082,0.355,0.127,0.543,0.127
		c0.24,0,0.475-0.071,0.681-0.217c0.355-0.258,0.535-0.7,0.453-1.13l-2.541-14.806l10.761-10.488
		C333.352,297.887,333.472,297.431,333.337,297.008z"/>
	<path style="fill:#ED8422;" d="M268.129,295.317c-0.176-0.546-0.647-0.947-1.227-1.033l-19.51-2.836l-8.737-17.695
		c-0.501-1.029-2.215-1.029-2.72,0l-8.733,17.695l-19.513,2.836c-0.58,0.086-1.044,0.486-1.227,1.033
		c-0.18,0.546-0.037,1.152,0.378,1.553l14.136,13.77l-3.341,19.446c-0.097,0.569,0.131,1.141,0.602,1.482
		c0.464,0.337,1.085,0.382,1.59,0.112l17.467-9.182l17.467,9.182c0.221,0.112,0.46,0.172,0.703,0.172
		c0.314,0,0.636-0.094,0.887-0.284c0.468-0.344,0.703-0.913,0.602-1.482l-3.341-19.446l14.136-13.77
		C268.159,296.469,268.309,295.867,268.129,295.317z"/>
</g>
<g>
	<polygon style="fill:#EA8500;" points="150.218,324.615 63.446,251.489 139.722,196.279 188.212,297.008 	"/>
	<polygon style="fill:#EA8500;" points="324.394,324.615 411.17,251.489 334.897,196.279 286.4,297.008 	"/>
</g>
<path style="fill:#FFC50B;" d="M139.722,196.279c-0.273-0.834-0.988-1.441-1.856-1.564l-29.541-4.296l-13.22-26.784
	c-0.767-1.553-3.349-1.553-4.105,0L77.766,190.42l-29.541,4.296c-0.861,0.123-1.583,0.73-1.852,1.564
	c-0.273,0.831-0.052,1.74,0.58,2.346l21.384,20.845l-5.051,29.437c-0.146,0.857,0.206,1.725,0.913,2.241
	c0.703,0.513,1.646,0.58,2.413,0.176l26.432-13.901l26.439,13.901c0.329,0.176,0.703,0.262,1.066,0.262
	c0.475,0,0.95-0.146,1.336-0.438c0.703-0.516,1.07-1.381,0.913-2.241l-5.048-29.437l21.388-20.845
	C139.767,198.019,139.999,197.11,139.722,196.279z"/>
<polygon style="fill:#EA8500;" points="267.751,296.87 206.839,296.87 175.995,192.912 298.834,192.912 "/>
<g>
	<path style="fill:#FFC50B;" d="M298.595,192.912c-0.359-1.089-1.295-1.886-2.436-2.054l-38.795-5.643l-17.366-35.169
		c-1.01-2.051-4.397-2.051-5.407,0l-17.358,35.169l-38.799,5.643c-1.141,0.168-2.084,0.965-2.44,2.054
		c-0.352,1.089-0.06,2.286,0.763,3.076l28.086,27.382l-6.63,38.653c-0.195,1.134,0.269,2.271,1.19,2.945
		c0.935,0.677,2.17,0.767,3.181,0.236l34.713-18.256l34.716,18.256c0.43,0.232,0.924,0.344,1.407,0.344
		c0.621,0,1.246-0.191,1.755-0.576c0.928-0.674,1.403-1.811,1.197-2.945l-6.623-38.653l28.086-27.382
		C298.655,195.198,298.954,194,298.595,192.912z"/>
	<path style="fill:#FFC50B;" d="M428.221,196.279c-0.269-0.834-0.984-1.441-1.852-1.564l-29.545-4.296l-13.227-26.784
		c-0.76-1.553-3.341-1.553-4.108,0l-13.223,26.784l-29.545,4.296c-0.864,0.123-1.579,0.73-1.856,1.564
		c-0.262,0.831-0.052,1.74,0.58,2.346l21.388,20.845l-5.051,29.437c-0.153,0.857,0.206,1.725,0.905,2.241
		c0.707,0.513,1.65,0.58,2.421,0.176l26.428-13.901l26.432,13.901c0.333,0.176,0.703,0.262,1.074,0.262
		c0.471,0,0.95-0.146,1.343-0.438c0.703-0.516,1.059-1.381,0.906-2.241l-5.051-29.437l21.392-20.845
		C428.266,198.019,428.491,197.11,428.221,196.279z"/>
</g>
<g>
</g>
<g>
</g>
<g>
</g>
<g>
</g>
<g>
</g>
<g>
</g>
<g>
</g>
<g>
</g>
<g>
</g>
<g>
</g>
<g>
</g>
<g>
</g>
<g>
</g>
<g>
</g>
<g>
</g>
</svg>
