<?xml version="1.0" encoding="utf-8"?>
<!-- Generator: Adobe Illustrator 22.0.0, SVG Export Plug-In . SVG Version: 6.00 Build 0)  -->
<svg version="1.1" xmlns="http://www.w3.org/2000/svg" xmlns:xlink="http://www.w3.org/1999/xlink" x="0px" y="0px"
	 viewBox="0 0 600 600" style="enable-background:new 0 0 600 600;" xml:space="preserve">
<style type="text/css">
	.st0{display:none;}
	.st1{fill:#42491A;stroke:#282D0A;stroke-miterlimit:10;}
	.st2{fill:none;stroke:#A6BA68;stroke-width:2;stroke-miterlimit:10;}
	.st3{fill:none;}
	.st4{fill:#FFFFFF;stroke:#282D0A;stroke-miterlimit:10;}
	.st5{font-family:'CopperplateGothic-Bold';}
	.st6{font-size:50.2451px;}
	.st7{letter-spacing:10.6;}
	.st8{fill:#FFFFFF;stroke:#282D0A;stroke-width:0.75;stroke-miterlimit:10;}
	.st9{font-size:51px;}
</style>
<g id="Layer_1" class="st0">
	
		<image style="display:inline;overflow:visible;" width="2000" height="2000" xlink:href="../../../../New folder/LG.jpg"  transform="matrix(0.3 0 0 0.3 0 0)">
	</image>
</g>
<g id="BG">
	<rect x="-0.5" y="-0.5" class="st1" width="600" height="600"/>
</g>
<g id="Layer_3">
	<path class="st2" d="M495,209.7L506.2,98h7v104.2h7V98h7v104.2h7V98h7v104.2h7V98h7L567,213.5c-1.5,20.9-18.2,31.3-26.6,36.2
		l13.6,235.9c1.1,16.5-4,27.8-19.2,28.3c-15.2-0.1-20.6-8.6-20.3-26.4l7.7-237.8C522.3,249.8,494.3,245.2,495,209.7z"/>
	<path class="st2" d="M78.5,98c0.2,1.7-36.4-10-43.3,99c0,0-4.2,36.9,32.1,45.8l-9.8,242.4c-0.4,16.6,6.2,26.7,21.7,28.1
		c16.9,0,25-11.4,24.5-28.1L91.1,242.8c0,0,33.2-4.3,32.1-42.9C122.2,163.5,112,98.1,78.5,98z"/>
	<path class="st2" d="M99.4,279.8c0,0,65.7-50.2,213.9-11.8S516,279.8,516,279.8"/>
	<path class="st2" d="M107.8,418.7c0,0,57.3-41.4,205.5-3s197.1,11.8,197.1,11.8"/>
	<polyline class="st2" points="181.9,247.3 181.9,134.9 304.9,134.9 427.9,134.9 427.9,279.8 	"/>
	<rect x="113.4" y="305" class="st3" width="308.6" height="77.6"/>
	<text transform="matrix(0.9458 0 0 1 113.4229 332.5088)" class="st4 st5 st6 st7">VIRTUAL</text>
	<rect x="287" y="366.2" class="st3" width="228.8" height="77.6"/>
	<text transform="matrix(0.9458 0 0 1 287 394.0781)" class="st8 st5 st9 st7">MENU</text>
	<path class="st1" d="M202.2,157.9c48.9,0,97.8,0,146.8,0"/>
	<path class="st1" d="M203.6,183.8c38.2,0,76.4-0.1,114.6-0.1"/>
	<path class="st1" d="M203.6,200c38.2,0,76.4-0.1,114.6-0.1"/>
	<path class="st1" d="M203.6,216.3c38.2,0,76.4-0.1,114.6-0.1"/>
</g>
</svg>
